:SAMPLES-PER-SECOND 30
:FULLY-SPECIFIED
:DEGREES
190
root  77.6734 38.6695 1.03185 178.147 -56.6655 178.363
RightUpLeg  -2.57689 -9.66921 -4.50498
RightLeg  16.8703 2.65211 0.910418
RightFoot  -12.673 -0.0489522 3.15991
RightToes  3.49245e-010 0 -3.6325e-017
Spine  8.61625 1.03698 9.91889
Spine1  6.01135 3.64414 -8.24263
HEad  -23.8452 31.4745 -11.3654
LeftShoulder1  -0.474604 4.80739 -30.3125
LeftArm  6.49493 3.87037 -41.482
LeftForeArm  20.2282 -20.0033 -4.78841
LeftHand  0.0124315 7.68114 2.56897
RightShoulder  -0.582636 -5.20695 27.4429
RightArm  23.774 6.98651 44.1064
RightForeArm  5.29796 21.3939 4.69335
RightHand  -0.330472 5.93157 -3.71098
LeftUpLeg  -17.7266 -6.72721 3.07101
LeftLeg  17.5184 -2.38563 -0.527195
LeftFoot  -3.04342 0.0343571 -0.290157
LeftToes  -5.6298e-010 8.41567e-011 -1.83319e-011
191
root  77.9432 38.7365 0.860676 179.82 -61.1735 177.472
RightUpLeg  -2.55813 -10.7561 -4.61725
RightLeg  15.9449 -0.618899 0.484794
RightFoot  -12.8496 -0.038538 3.69771
RightToes  3.49245e-010 0 -3.6325e-017
Spine  9.26312 1.3888 8.39681
Spine1  3.72604 3.13965 -5.54028
HEad  -22.0526 29.3352 -11.0687
LeftShoulder1  -0.448618 4.6764 -32.1014
LeftArm  10.4935 5.08398 -39.7929
LeftForeArm  18.0573 -21.2618 -4.49913
LeftHand  0.0270583 8.43041 2.66248
RightShoulder  -0.723038 -5.59815 27.867
RightArm  23.4681 5.06873 43.6423
RightForeArm  5.66382 18.9565 5.2466
RightHand  -0.282924 5.84422 -3.2453
LeftUpLeg  -18.9116 -2.35882 2.02285
LeftLeg  17.9984 -3.69194 -1.02144
LeftFoot  -3.54223 0.129897 -1.82752
LeftToes  -5.6298e-010 8.41567e-011 -1.83319e-011
192
root  78.0131 38.8768 0.714283 -177.783 -64.1039 174.731
RightUpLeg  -1.24065 -11.678 -5.93134
RightLeg  14.5771 -2.38664 0.472012
RightFoot  -12.7659 -0.0405657 3.68604
RightToes  3.49245e-010 0 -3.6325e-017
Spine  8.49166 1.50022 8.80385
Spine1  4.95732 3.59686 -6.71458
HEad  -21.5815 27.0804 -11.3142
LeftShoulder1  -0.50932 4.84191 -31.9194
LeftArm  12.1659 6.61081 -39.6595
LeftForeArm  17.6191 -22.741 -4.20238
LeftHand  0.0378082 8.68844 3.15165
RightShoulder  -0.768399 -5.71547 28.1086
RightArm  20.9047 4.12231 44.9546
RightForeArm  8.5598 15.59 6.18595
RightHand  -0.194925 6.23677 -2.28483
LeftUpLeg  -17.9224 -0.162318 0.379807
LeftLeg  17.5808 -2.70225 -0.635563
LeftFoot  -3.41154 0.131416 -1.88486
LeftToes  -5.6298e-010 8.41567e-011 -1.83319e-011
193
root  77.9894 38.9183 0.625776 -175.118 -66.816 172.121
RightUpLeg  -0.720437 -12.5644 -7.05129
RightLeg  14.3717 -3.96367 0.500781
RightFoot  -13.3258 -0.0179192 4.17935
RightToes  3.49245e-010 0 -3.6325e-017
Spine  7.34461 2.10847 9.28105
Spine1  6.04749 4.28742 -6.76549
HEad  -21.3475 24.0881 -11.9994
LeftShoulder1  -0.515093 4.84303 -32.3145
LeftArm  12.22 8.60293 -39.5282
LeftForeArm  18.5481 -24.4422 -4.22574
LeftHand  0.0126939 10.8509 1.55083
RightShoulder  -0.743184 -5.65538 27.8913
RightArm  19.1879 2.35044 45.7278
RightForeArm  11.5736 13.4564 6.79531
RightHand  -0.183361 6.83457 -2.08818
LeftUpLeg  -17.7043 0.625626 -0.681854
LeftLeg  18.5582 -1.01416 -0.0585611
LeftFoot  -3.71507 0.157056 -2.30045
LeftToes  -5.6298e-010 8.41567e-011 -1.83319e-011
194
root  77.9359 38.8909 0.563758 -173.292 -69.6224 170.435
RightUpLeg  -0.307962 -13.2587 -7.59571
RightLeg  14.6253 -5.77008 0.493327
RightFoot  -14.0582 0.0129621 4.57108
RightToes  3.49245e-010 0 -3.6325e-017
Spine  7.34013 2.69512 9.70777
Spine1  5.54069 4.70727 -5.90125
HEad  -21.9275 20.7373 -12.0637
LeftShoulder1  -0.537503 4.87283 -33.1136
LeftArm  12.2811 11.262 -38.9598
LeftForeArm  18.7591 -25.064 -4.37578
LeftHand  0.00890833 7.6752 2.48525
RightShoulder  -0.83935 -5.91577 28.2019
RightArm  18.9028 0.99833 45.675
RightForeArm  13.8541 11.41 7.55404
RightHand  -0.218692 6.36936 -2.49404
LeftUpLeg  -17.7742 0.614817 -0.951543
LeftLeg  20.36 -0.295764 0.205595
LeftFoot  -3.97316 0.134465 -1.95107
LeftToes  -5.6298e-010 8.41567e-011 -1.83319e-011
195
root  77.8636 38.8061 0.523798 -172.275 -73.1621 169.721
RightUpLeg  0.0328307 -13.6795 -7.51879
RightLeg  15.137 -8.65248 0.345945
RightFoot  -14.76 0.0552528 5.17791
RightToes  3.49245e-010 0 -3.6325e-017
Spine  7.2463 2.62588 10.7859
Spine1  4.98363 4.57316 -5.49646
HEad  -22.7816 18.8552 -12.451
LeftShoulder1  -0.549888 4.89637 -33.3337
LeftArm  11.3132 14.2803 -38.4175
LeftForeArm  19.6477 -25.7083 -4.46816
LeftHand  -0.036249 7.68579 0.559989
RightShoulder  -0.848386 -5.91653 28.5595
RightArm  18.344 0.209482 46.2001
RightForeArm  17.0501 9.39947 8.16012
RightHand  -0.233833 5.36214 -2.84957
LeftUpLeg  -18.5357 -1.45489 -0.40589
LeftLeg  23.2578 -0.140463 0.245031
LeftFoot  -4.01876 0.116624 -1.66242
LeftToes  -5.6298e-010 8.41567e-011 -1.83319e-011
196
root  77.7927 38.701 0.525421 -170.811 -76.4369 168.933
RightUpLeg  -0.160866 -14.1807 -7.36577
RightLeg  15.7127 -11.1796 0.297052
RightFoot  -15.3978 0.106394 5.96607
RightToes  3.49245e-010 0 -3.6325e-017
Spine  6.72878 2.49533 11.6855
Spine1  4.78009 4.35373 -5.20348
HEad  -23.673 17.4722 -12.4727
LeftShoulder1  -0.581753 4.96745 -33.5884
LeftArm  11.6105 16.9505 -37.9365
LeftForeArm  19.6459 -25.9791 -4.52163
LeftHand  -0.0170424 5.72013 3.08921
RightShoulder  -0.889945 -6.01675 28.8299
RightArm  17.786 0.459284 47.1443
RightForeArm  20.0811 7.54345 8.53553
RightHand  -0.215995 4.3391 -2.89801
LeftUpLeg  -20.1205 -3.08785 0.126872
LeftLeg  26.5718 -1.26723 -0.355611
LeftFoot  -4.04609 0.0894384 -1.21725
LeftToes  -5.6298e-010 8.41567e-011 -1.83319e-011
